<svg id="Layer_1" enable-background="new 0 0 512 512" height="512" viewBox="0 0 512 512" width="512"
  xmlns="http://www.w3.org/2000/svg">
  <g>
    <g>
      <g>
        <g>
          <path d="m173.167 173.167h-165.667v-135.667c0-16.569 13.431-30 30-30h135.667z" fill="#f472b6" />
          <path d="m173.167 7.5h165.667v165.667h-165.667z" fill="#fafafa" />
          <path d="m504.5 173.167h-165.667v-165.667h135.667c16.569 0 30 13.431 30 30z" fill="#f472b6" />
          <path d="m474.5 7.5h-40c16.569 0 30 13.431 30 30v135.667h40v-135.667c0-16.569-13.431-30-30-30z"
            fill="#ec4899" />
        </g>
        <g>
          <path d="m7.5 173.167h165.667v165.667h-165.667z" fill="#fafafa" />
          <path d="m173.167 173.167h165.667v165.667h-165.667z" fill="#f472b6" />
          <path d="m338.833 173.167h165.667v165.667h-165.667z" fill="#fafafa" />
          <path d="m464.5 173.167h40v165.667h-40z" fill="#f9f3f1" />
        </g>
        <g>
          <path d="m173.167 504.5h-135.667c-16.569 0-30-13.431-30-30v-135.667h165.667z" fill="#f472b6" />
          <path d="m173.167 338.833h165.667v165.667h-165.667z" fill="#fafafa" />
          <path d="m474.5 504.5h-135.667v-165.667h165.667v135.667c0 16.569-13.431 30-30 30z" fill="#f472b6" />
          <path d="m464.5 338.833v135.667c0 16.569-13.431 30-30 30h40c16.569 0 30-13.431 30-30v-135.667z"
            fill="#ec4899" />
        </g>
      </g>
    </g>
    <g>
      <path
        fill="#831843"
        d="m474.5 0h-378.545c-9.916.307-9.909 14.696 0 15h69.711v150.667h-150.666v-128.167c0-12.407 10.093-22.5 22.5-22.5h18.493c9.916-.307 9.909-14.696 0-15h-18.493c-20.678 0-37.5 16.822-37.5 37.5v437c0 20.678 16.822 37.5 37.5 37.5h437c20.678 0 37.5-16.822 37.5-37.5v-437c0-20.678-16.822-37.5-37.5-37.5zm-459.5 180.667h150.667v150.667h-150.667zm316.333 150.666h-150.666v-150.666h150.667v150.666zm15 0v-150.666h150.667v150.667h-150.667zm150.667-293.833v128.167h-150.667v-150.667h128.167c12.407 0 22.5 10.093 22.5 22.5zm-165.667 128.167h-150.666v-150.667h150.667v150.667zm-316.333 308.833v-128.167h150.667v150.667h-128.167c-12.407 0-22.5-10.093-22.5-22.5zm459.5 22.5h-128.167v-53.06c-.307-9.916-14.696-9.909-15 0v53.06h-150.666v-150.667h150.667v57.708c.307 9.916 14.696 9.909 15 0v-57.708h150.666v128.167c0 12.407-10.093 22.5-22.5 22.5z" />
      <path
        fill="#0e7490"
        d="m261.98 372.043h-17.96c-9.916.307-9.909 14.696 0 15h10.46v76.747c.307 9.916 14.696 9.909 15 0v-84.247c0-4.142-3.358-7.5-7.5-7.5z" />
      <path
        fill="#0e7490"
        d="m113.413 291.238h-28.366l21.601-30.684c5.221-7.459 8.617-14.474 10.095-20.849 4.064-17.104-11.513-33.944-28.391-33.944-13.827 0-25.795 9.836-28.457 23.388-.798 4.064 1.85 8.006 5.914 8.805 4.066.798 8.007-1.85 8.805-5.914 1.284-6.535 7.061-11.279 13.738-11.279 7.761 0 15.393 7.619 13.76 15.636-1.054 4.478-3.662 9.711-7.741 15.54l-29.908 42.484c-3.661 5.201.648 11.817 6.133 11.817h42.818c9.903-.302 9.919-14.692-.001-15z" />
      <path fill="#0e7490"
        d="m421.667 125.834c-7.645 0-14-6.41-14-14 0-4.142-3.358-7.5-7.5-7.5s-7.5 3.358-7.5 7.5c0 15.706 13.257 29 29 29 26.488.022 38.954-33.056 19.44-50.501 19.515-17.454 7.048-50.522-19.44-50.501-13.826 0-25.794 9.836-28.456 23.387-.798 4.064 1.849 8.007 5.914 8.805 4.066.796 8.007-1.849 8.805-5.914 3.654-16.433 27.332-14.147 27.739 2.722 0 7.72-6.281 14.001-14.001 14.001-4.142 0-7.5 3.358-7.5 7.5s3.358 7.5 7.5 7.5c18.541.697 18.546 27.302-.001 28.001z" />
    </g>
  </g>
</svg>